<svg xmlns="http://www.w3.org/2000/svg" width="1600" height="900" viewBox="0 0 1600 900" role="img" aria-labelledby="title desc">
  <title id="title">cases-parser workflow visual</title>
  <desc id="desc">A polished workflow showing court calendar pages converted into a normalized Excel workbook with legal enrichment.</desc>
  <rect width="1600" height="900" fill="#0f172a"/>
  <rect x="72" y="72" width="1456" height="756" rx="34" fill="#111827" stroke="#334155" stroke-width="3"/>
  <text x="124" y="158" fill="#f8fafc" font-family="Arial, Helvetica, sans-serif" font-size="62" font-weight="700">cases-parser</text>
  <text x="126" y="210" fill="#94a3b8" font-family="Arial, Helvetica, sans-serif" font-size="28">Court calendar pages into one review-ready Excel workbook</text>

  <rect x="126" y="290" width="310" height="360" rx="22" fill="#1e293b" stroke="#38bdf8" stroke-width="3"/>
  <text x="166" y="350" fill="#e0f2fe" font-family="Arial, Helvetica, sans-serif" font-size="30" font-weight="700">Monthly index</text>
  <rect x="166" y="386" width="230" height="26" rx="8" fill="#334155"/>
  <rect x="166" y="430" width="190" height="26" rx="8" fill="#334155"/>
  <rect x="166" y="474" width="245" height="26" rx="8" fill="#334155"/>
  <rect x="166" y="536" width="116" height="44" rx="12" fill="#075985"/>
  <text x="190" y="566" fill="#e0f2fe" font-family="Arial, Helvetica, sans-serif" font-size="22">civil</text>
  <rect x="294" y="536" width="116" height="44" rx="12" fill="#064e3b"/>
  <text x="312" y="566" fill="#d1fae5" font-family="Arial, Helvetica, sans-serif" font-size="22">crime</text>

  <path d="M470 470 C548 470 556 470 626 470" fill="none" stroke="#22d3ee" stroke-width="8" stroke-linecap="round"/>
  <path d="M606 446 L642 470 L606 494 Z" fill="#22d3ee"/>

  <rect x="650" y="274" width="300" height="392" rx="26" fill="#0f766e" stroke="#5eead4" stroke-width="3"/>
  <text x="704" y="340" fill="#ecfeff" font-family="Arial, Helvetica, sans-serif" font-size="34" font-weight="700">Normalize</text>
  <text x="704" y="390" fill="#ccfbf1" font-family="Arial, Helvetica, sans-serif" font-size="24">decode pages</text>
  <text x="704" y="434" fill="#ccfbf1" font-family="Arial, Helvetica, sans-serif" font-size="24">align columns</text>
  <text x="704" y="478" fill="#ccfbf1" font-family="Arial, Helvetica, sans-serif" font-size="24">resolve law text</text>
  <text x="704" y="522" fill="#ccfbf1" font-family="Arial, Helvetica, sans-serif" font-size="24">summarize locally</text>
  <circle cx="800" cy="596" r="36" fill="#ccfbf1"/>
  <text x="775" y="609" fill="#115e59" font-family="Arial, Helvetica, sans-serif" font-size="31" font-weight="700">ML</text>

  <path d="M984 470 C1054 470 1072 470 1138 470" fill="none" stroke="#2dd4bf" stroke-width="8" stroke-linecap="round"/>
  <path d="M1118 446 L1154 470 L1118 494 Z" fill="#2dd4bf"/>

  <rect x="1176" y="260" width="270" height="420" rx="22" fill="#f8fafc"/>
  <rect x="1176" y="260" width="270" height="62" rx="22" fill="#10b981"/>
  <text x="1222" y="301" fill="#052e16" font-family="Arial, Helvetica, sans-serif" font-size="28" font-weight="700">Workbook</text>
  <line x1="1176" y1="378" x2="1446" y2="378" stroke="#cbd5e1" stroke-width="2"/>
  <line x1="1176" y1="436" x2="1446" y2="436" stroke="#cbd5e1" stroke-width="2"/>
  <line x1="1176" y1="494" x2="1446" y2="494" stroke="#cbd5e1" stroke-width="2"/>
  <line x1="1176" y1="552" x2="1446" y2="552" stroke="#cbd5e1" stroke-width="2"/>
  <line x1="1246" y1="322" x2="1246" y2="680" stroke="#cbd5e1" stroke-width="2"/>
  <line x1="1334" y1="322" x2="1334" y2="680" stroke="#cbd5e1" stroke-width="2"/>
  <circle cx="1212" cy="350" r="10" fill="#38bdf8"/>
  <circle cx="1212" cy="408" r="10" fill="#22c55e"/>
  <circle cx="1212" cy="466" r="10" fill="#f59e0b"/>
  <circle cx="1212" cy="524" r="10" fill="#a78bfa"/>
  <text x="124" y="744" fill="#cbd5e1" font-family="Arial, Helvetica, sans-serif" font-size="24">crawl -> parse -> enrich -> export</text>
</svg>

